<svg width="48" height="50" viewBox="0 0 48 50" fill="none" xmlns="http://www.w3.org/2000/svg">
<path d="M38.6619 37.6577H14.3555C12.0961 37.6577 9.92791 36.6991 8.39878 35.0331C6.86965 33.367 6.0937 31.1304 6.27628 28.8709L8.17058 6.13934C8.23905 5.43184 7.98797 4.74717 7.50869 4.22225C7.02941 3.69732 6.36757 3.42343 5.66007 3.42343H1.71171C0.775977 3.42343 0 2.64745 0 1.71171C0 0.775977 0.775977 0 1.71171 0H5.68291C7.34898 0 8.92371 0.707508 10.042 1.91712C10.6582 2.6018 11.1147 3.4006 11.3658 4.29069H39.8715C42.1766 4.29069 44.2991 5.20361 45.8511 6.84685C47.3802 8.51292 48.1562 10.6811 47.9736 12.9862L46.7412 30.1033C46.4901 34.2799 42.8385 37.6577 38.6619 37.6577ZM11.4799 7.6913L9.69971 29.1448C9.5856 30.4685 10.0192 31.7238 10.9093 32.7051C11.7994 33.6865 13.0318 34.2114 14.3555 34.2114H38.6619C41.0355 34.2114 43.1808 32.203 43.3634 29.8295L44.5958 12.7123C44.6871 11.3658 44.2535 10.0877 43.3634 9.15198C42.4733 8.19342 41.2409 7.66845 39.8943 7.66845H11.4799V7.6913Z" fill="white"/>
<path d="M34.2344 49.0692C31.7239 49.0692 29.6698 47.0151 29.6698 44.5046C29.6698 41.9941 31.7239 39.9401 34.2344 39.9401C36.7449 39.9401 38.7989 41.9941 38.7989 44.5046C38.7989 47.0151 36.7449 49.0692 34.2344 49.0692ZM34.2344 43.3635C33.5953 43.3635 33.0932 43.8656 33.0932 44.5046C33.0932 45.1437 33.5953 45.6458 34.2344 45.6458C34.8734 45.6458 35.3755 45.1437 35.3755 44.5046C35.3755 43.8656 34.8734 43.3635 34.2344 43.3635Z" fill="white"/>
<path d="M15.9761 49.0692C13.4656 49.0692 11.4115 47.0151 11.4115 44.5046C11.4115 41.9941 13.4656 39.9401 15.9761 39.9401C18.4866 39.9401 20.5406 41.9941 20.5406 44.5046C20.5406 47.0151 18.4866 49.0692 15.9761 49.0692ZM15.9761 43.3635C15.337 43.3635 14.8349 43.8656 14.8349 44.5046C14.8349 45.1437 15.337 45.6458 15.9761 45.6458C16.6151 45.6458 17.1172 45.1437 17.1172 44.5046C17.1172 43.8656 16.6151 43.3635 15.9761 43.3635Z" fill="white"/>
<path d="M45.0752 17.1172H17.6878C16.7521 17.1172 15.9761 16.3412 15.9761 15.4054C15.9761 14.4697 16.7521 13.6937 17.6878 13.6937H45.0752C46.0109 13.6937 46.7869 14.4697 46.7869 15.4054C46.7869 16.3412 46.0109 17.1172 45.0752 17.1172Z" fill="white"/>
</svg>
